<?xml version="1.0" encoding="UTF-8" standalone="no"?>
<!-- Created with Inkscape (http://www.inkscape.org/) -->

<svg
   width="133.79291mm"
   height="108.2431mm"
   viewBox="0 0 133.79291 108.2431"
   version="1.1"
   id="svg1"
   xmlns:inkscape="http://www.inkscape.org/namespaces/inkscape"
   xmlns:sodipodi="http://sodipodi.sourceforge.net/DTD/sodipodi-0.dtd"
   xmlns="http://www.w3.org/2000/svg"
   xmlns:svg="http://www.w3.org/2000/svg">
  <sodipodi:namedview
     id="namedview1"
     pagecolor="#ffffff"
     bordercolor="#000000"
     borderopacity="0.25"
     inkscape:showpageshadow="2"
     inkscape:pageopacity="0.0"
     inkscape:pagecheckerboard="0"
     inkscape:deskcolor="#d1d1d1"
     inkscape:document-units="mm" />
  <defs
     id="defs1" />
  <g
     inkscape:label="Calque 1"
     inkscape:groupmode="layer"
     id="layer1"
     transform="translate(-37.625886,-15.685154)">
    <path
       style="fill:#fff9f9;fill-opacity:0.992443;stroke:#ffffff;stroke-width:1;stroke-opacity:1"
       id="path11"
       d="m 72.824839,30.684716 c -1.90424,3.43412 -4.3801,6.523691 -6.85605,9.554795 -3.37996,4.137806 -4.60579,5.474782 -8.196779,9.596041 -4.130008,4.548489 -8.340693,9.021093 -12.612208,13.436502 -0.510903,0.528116 -4.657193,4.737465 -5.377733,5.655831 -0.523663,0.667435 -0.897443,1.439918 -1.346166,2.159875 -0.09961,0.711137 -0.363458,1.418246 -0.298815,2.133407 0.263232,2.912208 3.534389,5.812483 5.411102,7.691181 2.284606,2.287021 4.333897,4.147711 6.704767,6.34918 5.350444,4.995926 10.999892,9.658508 16.280772,14.729142 2.02922,1.91543 3.97928,3.91502 5.72679,6.09207 0.60369,0.73814 1.18031,1.49767 1.79581,2.22617 0,0 3.64373,1.52981 3.64373,1.52981 v 0 c -0.67845,-0.69465 -1.22608,-1.50483 -1.87064,-2.2306 -1.7779,-2.24296 -3.79395,-4.27607 -5.89432,-6.2178 -5.36823,-5.095453 -11.09374,-9.791847 -16.514479,-14.830463 -2.553965,-2.370529 -4.188717,-3.839951 -6.637568,-6.299669 -1.703284,-1.710846 -4.963091,-4.682902 -5.331859,-7.302433 -0.09428,-0.669693 0.118552,-1.347383 0.177829,-2.021076 0.405966,-0.718224 0.733647,-1.486725 1.217901,-2.154674 0.781965,-1.0786 4.512609,-5.083066 5.155123,-5.779129 4.162147,-4.50904 8.342876,-9.000996 12.490203,-13.523746 4.33408,-4.857086 4.26952,-4.740606 8.37296,-9.502822 2.5893,-3.005003 5.22093,-6.006098 7.39227,-9.337104 z"
       inkscape:export-filename="test2.svg"
       inkscape:export-xdpi="96"
       inkscape:export-ydpi="96" />
    <path
       style="fill:#ffffff;fill-opacity:0.992443;stroke:#ffffff;stroke-width:1;stroke-opacity:1"
       id="path11-6"
       d="m 136.21985,30.684716 c 1.90424,3.43412 4.3801,6.523691 6.85605,9.554795 3.37996,4.137806 4.60579,5.474782 8.19678,9.596041 4.13,4.548489 8.34069,9.021093 12.6122,13.436502 0.51091,0.528116 4.6572,4.737465 5.37774,5.655831 0.52366,0.667435 0.89744,1.439918 1.34616,2.159875 0.0996,0.711137 0.36346,1.418246 0.29882,2.133407 -0.26323,2.912208 -3.53439,5.812483 -5.4111,7.691181 -2.28461,2.287021 -4.3339,4.147711 -6.70477,6.34918 -5.35045,4.995926 -10.99989,9.658508 -16.28077,14.729142 -2.02922,1.91544 -3.97928,3.91503 -5.72679,6.09208 -0.60369,0.73814 -1.18031,1.49767 -1.79581,2.22617 0,0 -3.64373,1.52981 -3.64373,1.52981 v 0 c 0.67845,-0.69465 1.22608,-1.50483 1.87064,-2.2306 1.7779,-2.24296 3.79395,-4.27607 5.89432,-6.2178 5.36823,-5.095463 11.09374,-9.791857 16.51448,-14.830473 2.55396,-2.370529 4.18871,-3.839951 6.63756,-6.299669 1.70329,-1.710846 4.96309,-4.682902 5.33186,-7.302433 0.0943,-0.669693 -0.11855,-1.347383 -0.17783,-2.021076 -0.40596,-0.718224 -0.73364,-1.486725 -1.2179,-2.154674 -0.78196,-1.0786 -4.51261,-5.083066 -5.15512,-5.779129 -4.16215,-4.50904 -8.34288,-9.000996 -12.4902,-13.523746 -4.33408,-4.857086 -4.26952,-4.740606 -8.37296,-9.502822 -2.5893,-3.005003 -5.22093,-6.006098 -7.39227,-9.337104 z" />
    <path
       style="fill:#ffffff;fill-opacity:0.992443;stroke:#ffffff;stroke-width:1.13898;stroke-opacity:1"
       id="path12"
       d="m 86.456983,123.02611 c 0.03575,-0.35984 0.05484,-0.72173 0.10727,-1.07952 0.220132,-1.50234 0.614571,-3.39284 0.941742,-4.82009 1.035249,-4.5162 2.3192,-8.95811 3.606648,-13.40711 1.501252,-5.052397 3.245847,-10.026582 4.963141,-15.00794 1.78768,-5.185516 1.829001,-5.434888 3.750318,-10.543174 0.593688,-1.578448 1.214068,-3.146731 1.821088,-4.720097 2.61383,-6.602379 5.36406,-13.148482 8.18841,-19.663124 1.59647,-3.610654 3.20614,-7.215786 4.96445,-10.751028 1.58482,-3.205223 3.14207,-6.423957 4.71108,-9.636919 1.19706,-2.379294 2.30978,-4.797182 3.50123,-7.179313 0.84129,-1.66461 1.53395,-3.39759 2.30222,-5.096019 0.37714,-0.801836 0.68014,-1.634236 1.00804,-2.456379 0,0 -3.87936,-2.158413 -3.87936,-2.158413 v 0 c -0.30343,0.829506 -0.5953,1.663024 -0.92122,2.48436 -0.7015,1.7224 -1.41107,3.443664 -2.20153,5.127349 -1.16401,2.401353 -2.23003,4.845881 -3.377,7.254906 -1.52188,3.234283 -3.08832,6.446348 -4.68115,9.646352 -1.77807,3.546091 -3.30842,7.205097 -4.77905,10.888046 -2.61226,6.636998 -5.19642,13.285456 -7.622474,19.993344 -1.894803,5.309549 -1.605684,4.527243 -3.604063,10.007793 -0.642357,1.761654 -1.305889,3.515647 -1.934075,5.282406 -1.766603,4.968527 -3.366676,9.994053 -4.972602,15.01601 -1.984021,6.2269 -3.996828,12.44547 -5.84609,18.71403 z" />
  </g>
</svg>
