<?xml version="1.0" encoding="utf-8"?>
<!-- Svg Vector Icons : http://www.onlinewebfonts.com/icon -->
<!DOCTYPE svg PUBLIC "-//W3C//DTD SVG 1.1//EN" "http://www.w3.org/Graphics/SVG/1.1/DTD/svg11.dtd">
<svg version="1.1" xmlns="http://www.w3.org/2000/svg" xmlns:xlink="http://www.w3.org/1999/xlink" x="0px" y="0px" viewBox="0 0 1000 1000" enable-background="new 0 0 1000 1000" xml:space="preserve">
<metadata> Svg Vector Icons : http://www.onlinewebfonts.com/icon </metadata>
<g><path fill='#FFFFFF' d="M500,990c-182.2,0-330.8-151.6-330.8-336.9c0-7.7,0-16.8,1.5-26c1.5-27.6,7.7-55.1,15.3-79.6c61.3-219,280.2-496.1,289.4-506.8L500,10l23,29.1c9.2,12.3,228.2,289.4,290.9,508.4c7.7,24.5,13.8,52.1,15.3,79.6c1.5,9.2,1.5,18.4,1.5,26C830.8,838.4,682.2,990,500,990z M500,108c-58.2,78.1-208.3,289.4-255.7,456.3c-7.7,23-12.2,44.4-13.8,67.4c0,7.7-1.5,15.3-1.5,21.4c0,153.1,121,277.2,271,277.2c150.1,0,271-124,271-277.2c0-6.1,0-12.3-1.5-19.9l0,0c-1.5-23-6.1-45.9-12.2-65.8C708.3,397.4,558.2,186.1,500,108z"/><path fill='#FFFFFF' d="M409.7,809.3c-4.6,0-10.7-1.5-15.3-4.6c-13.8-9.2-18.4-27.6-10.7-41.3l180.7-300.1c9.2-13.8,27.6-18.4,41.3-10.7c13.8,9.2,18.4,27.6,10.7,41.3L435.7,795.5C429.6,804.7,420.4,809.3,409.7,809.3z"/><path fill='#FFFFFF' d="M409.7,599.5c-49,0-90.3-39.8-90.3-90.3c0-50.5,39.8-90.3,90.3-90.3c50.5,0,90.3,39.8,90.3,90.3C500,559.7,460.2,599.5,409.7,599.5z M409.7,478.6c-16.8,0-30.6,13.8-30.6,30.6c0,16.8,13.8,30.6,30.6,30.6c16.8,0,30.6-13.8,30.6-30.6C440.3,492.3,426.5,478.6,409.7,478.6z"/><path fill='#FFFFFF' d="M590.3,839.9c-49,0-90.3-39.8-90.3-90.3c0-49,39.8-90.3,90.3-90.3c49,0,90.3,39.8,90.3,90.3S639.3,839.9,590.3,839.9z M590.3,720.5c-16.8,0-30.6,13.8-30.6,30.6c0,16.8,13.8,30.6,30.6,30.6S621,768,621,751.1C621,734.3,607.2,720.5,590.3,720.5z"/></g>
</svg>